<?xml version="1.0" standalone="no"?>
<!DOCTYPE svg PUBLIC "-//W3C//DTD SVG 1.1//EN"
"http://www.w3.org/Graphics/SVG/1.1/DTD/svg11.dtd">
<!-- Creator: fig2dev Version 3.2 Patchlevel 5e -->
<!-- CreationDate: Mon Jun 24 21:15:32 2019 -->
<!-- Magnification: 1.050 -->
<svg	xmlns="http://www.w3.org/2000/svg"
	xmlns:xlink="http://www.w3.org/1999/xlink"
	width="5.7in" height="3.1in"
	viewBox="1148 12874 6871 3714">
<g style="stroke-width:.025in; fill:none">
<!-- Line: box -->
<rect x="2125" y="13228" width="236" height="2456" rx="0" 
style="stroke:#606c71;stroke-width:0;
stroke-linejoin:miter; stroke-linecap:butt;
fill:#d7dadb;
"/>
<!-- Line: box -->
<rect x="4251" y="12897" width="236" height="614" rx="0" 
style="stroke:#606c71;stroke-width:16;
stroke-linejoin:miter; stroke-linecap:butt;
"/>
<!-- Line: box -->
<rect x="4582" y="12897" width="236" height="614" rx="0" 
style="stroke:#606c71;stroke-width:16;
stroke-linejoin:miter; stroke-linecap:butt;
"/>
<!-- Line: box -->
<rect x="4913" y="12897" width="236" height="614" rx="0" 
style="stroke:#606c71;stroke-width:16;
stroke-linejoin:miter; stroke-linecap:butt;
"/>
<!-- Line: box -->
<rect x="5244" y="12897" width="236" height="614" rx="0" 
style="stroke:#606c71;stroke-width:16;
stroke-linejoin:miter; stroke-linecap:butt;
"/>
<!-- Line: box -->
<rect x="5574" y="12897" width="236" height="614" rx="0" 
style="stroke:#606c71;stroke-width:16;
stroke-linejoin:miter; stroke-linecap:butt;
"/>
<!-- Line: box -->
<rect x="4251" y="13700" width="236" height="614" rx="0" 
style="stroke:#606c71;stroke-width:16;
stroke-linejoin:miter; stroke-linecap:butt;
"/>
<!-- Line: box -->
<rect x="4582" y="13700" width="236" height="614" rx="0" 
style="stroke:#606c71;stroke-width:16;
stroke-linejoin:miter; stroke-linecap:butt;
"/>
<!-- Line: box -->
<rect x="4913" y="13700" width="236" height="614" rx="0" 
style="stroke:#606c71;stroke-width:16;
stroke-linejoin:miter; stroke-linecap:butt;
"/>
<!-- Line: box -->
<rect x="5244" y="13700" width="236" height="614" rx="0" 
style="stroke:#606c71;stroke-width:16;
stroke-linejoin:miter; stroke-linecap:butt;
"/>
<!-- Line: box -->
<rect x="5574" y="13700" width="236" height="614" rx="0" 
style="stroke:#606c71;stroke-width:16;
stroke-linejoin:miter; stroke-linecap:butt;
"/>
<!-- Line: box -->
<rect x="4251" y="14503" width="236" height="614" rx="0" 
style="stroke:#606c71;stroke-width:16;
stroke-linejoin:miter; stroke-linecap:butt;
"/>
<!-- Line: box -->
<rect x="4582" y="14503" width="236" height="614" rx="0" 
style="stroke:#606c71;stroke-width:16;
stroke-linejoin:miter; stroke-linecap:butt;
"/>
<!-- Line: box -->
<rect x="4913" y="14503" width="236" height="614" rx="0" 
style="stroke:#606c71;stroke-width:16;
stroke-linejoin:miter; stroke-linecap:butt;
"/>
<!-- Line: box -->
<rect x="5244" y="14503" width="236" height="614" rx="0" 
style="stroke:#606c71;stroke-width:16;
stroke-linejoin:miter; stroke-linecap:butt;
"/>
<!-- Line: box -->
<rect x="5574" y="14503" width="236" height="614" rx="0" 
style="stroke:#606c71;stroke-width:16;
stroke-linejoin:miter; stroke-linecap:butt;
"/>
<!-- Line: box -->
<rect x="4251" y="15307" width="236" height="614" rx="0" 
style="stroke:#606c71;stroke-width:16;
stroke-linejoin:miter; stroke-linecap:butt;
"/>
<!-- Line: box -->
<rect x="4582" y="15307" width="236" height="614" rx="0" 
style="stroke:#606c71;stroke-width:16;
stroke-linejoin:miter; stroke-linecap:butt;
"/>
<!-- Line: box -->
<rect x="4913" y="15307" width="236" height="614" rx="0" 
style="stroke:#606c71;stroke-width:16;
stroke-linejoin:miter; stroke-linecap:butt;
"/>
<!-- Line: box -->
<rect x="5244" y="15307" width="236" height="614" rx="0" 
style="stroke:#606c71;stroke-width:16;
stroke-linejoin:miter; stroke-linecap:butt;
"/>
<!-- Line: box -->
<rect x="5574" y="15307" width="236" height="614" rx="0" 
style="stroke:#606c71;stroke-width:16;
stroke-linejoin:miter; stroke-linecap:butt;
"/>
<!-- Line -->
<polyline points="1653,13228
1653,15685
" style="stroke:#606c71;stroke-width:8;
stroke-linejoin:miter; stroke-linecap:butt;
stroke-dasharray:10 31;"/>
<!-- Line -->
<polyline points="1889,13228
1889,15685
" style="stroke:#606c71;stroke-width:8;
stroke-linejoin:miter; stroke-linecap:butt;
stroke-dasharray:10 31;"/>
<!-- Line -->
<polyline points="2125,13228
2125,15685
" style="stroke:#606c71;stroke-width:8;
stroke-linejoin:miter; stroke-linecap:butt;
stroke-dasharray:10 31;"/>
<!-- Line: box -->
<rect x="1417" y="13228" width="1181" height="2456" rx="0" 
style="stroke:#606c71;stroke-width:16;
stroke-linejoin:miter; stroke-linecap:butt;
"/>
<!-- Line -->
<polyline points="2929,14409
3669,14409
" style="stroke:#606c71;stroke-width:32;
stroke-linejoin:miter; stroke-linecap:butt;
"/>
<!-- Arrowhead on XXXpoint 2929 14409 - 3968 14409-->
<polygon points="3699 14472
3951 14409
3699 14346
3699 14472

" style="stroke:#606c71;stroke-width:8;stroke-miterlimit:8;
fill:#606c71;"/>
<!-- Line -->
<polyline points="6141,13228
6803,13228
" style="stroke:#606c71;stroke-width:16;
stroke-linejoin:miter; stroke-linecap:butt;
"/>
<!-- Arrowhead on XXXpoint 6141 13228 - 7023 13228-->
<polygon points="6817 13275
7006 13228
6817 13181
6817 13275

" style="stroke:#606c71;stroke-width:8;stroke-miterlimit:8;
fill:#606c71;"/>
<!-- Line -->
<polyline points="6141,13228
6803,13228
" style="stroke:#606c71;stroke-width:16;
stroke-linejoin:miter; stroke-linecap:butt;
"/>
<!-- Arrowhead on XXXpoint 6141 13228 - 7023 13228-->
<polygon points="6817 13275
7006 13228
6817 13181
6817 13275

" style="stroke:#606c71;stroke-width:8;stroke-miterlimit:8;
fill:#606c71;"/>
<!-- Line -->
<polyline points="6141,13228
6803,13228
" style="stroke:#606c71;stroke-width:16;
stroke-linejoin:miter; stroke-linecap:butt;
"/>
<!-- Arrowhead on XXXpoint 6141 13228 - 7023 13228-->
<polygon points="6817 13275
7006 13228
6817 13181
6817 13275

" style="stroke:#606c71;stroke-width:8;stroke-miterlimit:8;
fill:#606c71;"/>
<!-- Line -->
<polyline points="6141,13228
6803,13228
" style="stroke:#606c71;stroke-width:16;
stroke-linejoin:miter; stroke-linecap:butt;
"/>
<!-- Arrowhead on XXXpoint 6141 13228 - 7023 13228-->
<polygon points="6817 13275
7006 13228
6817 13181
6817 13275

" style="stroke:#606c71;stroke-width:8;stroke-miterlimit:8;
fill:#606c71;"/>
<!-- Line -->
<polyline points="6141,13228
6803,13228
" style="stroke:#606c71;stroke-width:16;
stroke-linejoin:miter; stroke-linecap:butt;
"/>
<!-- Arrowhead on XXXpoint 6141 13228 - 7023 13228-->
<polygon points="6817 13275
7006 13228
6817 13181
6817 13275

" style="stroke:#606c71;stroke-width:8;stroke-miterlimit:8;
fill:#606c71;"/>
<!-- Line -->
<polyline points="6141,13228
6803,13228
" style="stroke:#606c71;stroke-width:16;
stroke-linejoin:miter; stroke-linecap:butt;
"/>
<!-- Arrowhead on XXXpoint 6141 13228 - 7023 13228-->
<polygon points="6817 13275
7006 13228
6817 13181
6817 13275

" style="stroke:#606c71;stroke-width:8;stroke-miterlimit:8;
fill:#606c71;"/>
<!-- Line -->
<polyline points="6141,14031
6803,14031
" style="stroke:#606c71;stroke-width:16;
stroke-linejoin:miter; stroke-linecap:butt;
"/>
<!-- Arrowhead on XXXpoint 6141 14031 - 7023 14031-->
<polygon points="6817 14078
7006 14031
6817 13984
6817 14078

" style="stroke:#606c71;stroke-width:8;stroke-miterlimit:8;
fill:#606c71;"/>
<!-- Line -->
<polyline points="6141,14787
6803,14787
" style="stroke:#606c71;stroke-width:16;
stroke-linejoin:miter; stroke-linecap:butt;
"/>
<!-- Arrowhead on XXXpoint 6141 14787 - 7023 14787-->
<polygon points="6817 14834
7006 14787
6817 14740
6817 14834

" style="stroke:#606c71;stroke-width:8;stroke-miterlimit:8;
fill:#606c71;"/>
<!-- Line -->
<polyline points="6141,15590
6803,15590
" style="stroke:#606c71;stroke-width:16;
stroke-linejoin:miter; stroke-linecap:butt;
"/>
<!-- Arrowhead on XXXpoint 6141 15590 - 7023 15590-->
<polygon points="6817 15637
7006 15590
6817 15543
6817 15637

" style="stroke:#606c71;stroke-width:8;stroke-miterlimit:8;
fill:#606c71;"/>
<!-- Line -->
<polyline points="2362,13228
2362,15685
" style="stroke:#606c71;stroke-width:8;
stroke-linejoin:miter; stroke-linecap:butt;
stroke-dasharray:10 31;"/>
<!-- Line: box -->
<rect x="5244" y="12897" width="236" height="614" rx="0" 
style="stroke:#606c71;stroke-width:16;
stroke-linejoin:miter; stroke-linecap:butt;
fill:#d7dadb;
"/>
<!-- Line: box -->
<rect x="5244" y="13700" width="236" height="614" rx="0" 
style="stroke:#606c71;stroke-width:16;
stroke-linejoin:miter; stroke-linecap:butt;
fill:#d7dadb;
"/>
<!-- Line: box -->
<rect x="5244" y="14503" width="236" height="614" rx="0" 
style="stroke:#606c71;stroke-width:16;
stroke-linejoin:miter; stroke-linecap:butt;
fill:#d7dadb;
"/>
<!-- Line: box -->
<rect x="5244" y="15307" width="236" height="614" rx="0" 
style="stroke:#606c71;stroke-width:16;
stroke-linejoin:miter; stroke-linecap:butt;
fill:#d7dadb;
"/>
<!-- Text -->
<g transform="translate(1322,14409) rotate(-90.00021046)" >
<text xml:space="preserve" x="0" y="0" fill="#606c71"  font-family="Helvetica" font-style="normal" font-weight="normal" font-size="227" text-anchor="middle">rows</text>
</g><!-- Text -->
<text xml:space="preserve" x="1984" y="13133" fill="#606c71"  font-family="Helvetica" font-style="normal" font-weight="normal" font-size="227" text-anchor="middle">columns</text>
<!-- Text -->
<text xml:space="preserve" x="1984" y="16488" fill="#606c71"  font-family="Helvetica" font-style="normal" font-weight="normal" font-size="227" text-anchor="middle">single file</text>
<!-- Text -->
<text xml:space="preserve" x="5055" y="16488" fill="#606c71"  font-family="Helvetica" font-style="normal" font-weight="normal" font-size="227" text-anchor="middle">one file per column and slice</text>
<!-- Text -->
<text xml:space="preserve" x="7181" y="14125" fill="#606c71"  font-family="Helvetica" font-style="normal" font-weight="normal" font-size="227" text-anchor="start">CPU1</text>
<!-- Text -->
<text xml:space="preserve" x="7181" y="14881" fill="#606c71"  font-family="Helvetica" font-style="normal" font-weight="normal" font-size="227" text-anchor="start">CPU2</text>
<!-- Text -->
<text xml:space="preserve" x="7181" y="15685" fill="#606c71"  font-family="Helvetica" font-style="normal" font-weight="normal" font-size="227" text-anchor="start">CPU3</text>
<!-- Text -->
<text xml:space="preserve" x="7181" y="13322" fill="#606c71"  font-family="Helvetica" font-style="normal" font-weight="normal" font-size="227" text-anchor="start">CPU0</text>
</g>
</svg>
