<?xml version="1.0" standalone="no"?>
<!DOCTYPE svg PUBLIC "-//W3C//DTD SVG 1.1//EN"
"http://www.w3.org/Graphics/SVG/1.1/DTD/svg11.dtd">
<!-- Creator: fig2dev Version 3.2 Patchlevel 5e -->
<!-- CreationDate: Wed Jul 10 10:28:18 2019 -->
<!-- Magnification: 1.050 -->
<svg	xmlns="http://www.w3.org/2000/svg"
	xmlns:xlink="http://www.w3.org/1999/xlink"
	width="5.1in" height="2.7in"
	viewBox="4962 29592 6162 3257">
<g style="stroke-width:.025in; fill:none">
<!-- Line: box -->
<rect x="9968" y="30850" width="283" height="944" rx="0" 
style="stroke:#606c71;stroke-width:16;
stroke-linejoin:miter; stroke-linecap:butt;
fill:#ffffff;
"/>
<!-- Line: box -->
<rect x="10629" y="30850" width="283" height="944" rx="0" 
style="stroke:#606c71;stroke-width:16;
stroke-linejoin:miter; stroke-linecap:butt;
fill:#ffffff;
"/>
<!-- Line: box -->
<rect x="10299" y="30850" width="283" height="944" rx="0" 
style="stroke:#606c71;stroke-width:16;
stroke-linejoin:miter; stroke-linecap:butt;
fill:#ffffff;
"/>
<!-- Line: box -->
<rect x="10393" y="30992" width="283" height="944" rx="0" 
style="stroke:#606c71;stroke-width:16;
stroke-linejoin:miter; stroke-linecap:butt;
fill:#ffffff;
"/>
<!-- Line: box -->
<rect x="10724" y="30992" width="283" height="944" rx="0" 
style="stroke:#606c71;stroke-width:16;
stroke-linejoin:miter; stroke-linecap:butt;
fill:#ffffff;
"/>
<!-- Line: box -->
<rect x="10062" y="30992" width="283" height="944" rx="0" 
style="stroke:#606c71;stroke-width:16;
stroke-linejoin:miter; stroke-linecap:butt;
fill:#ffffff;
"/>
<!-- Line -->
<polyline points="6897,31039
6899,31040
6902,31043
6908,31047
6913,31054
6920,31062
6927,31074
6933,31087
6939,31107
6944,31133
6948,31158
6950,31180
6950,31196
6949,31210
6946,31219
6944,31228
6942,31236
6940,31246
6939,31259
6939,31276
6941,31298
6944,31322
6950,31349
6956,31369
6962,31382
6969,31394
6976,31402
6981,31408
6986,31413
6990,31416
6992,31417
" style="stroke:#606c71;stroke-width:8;
stroke-linejoin:bevel; stroke-linecap:butt;
"/>
<!-- Line -->
<polyline points="6897,31795
6899,31794
6902,31791
6908,31786
6913,31780
6920,31772
6927,31760
6933,31746
6939,31727
6944,31700
6948,31676
6950,31654
6950,31637
6949,31624
6946,31614
6944,31606
6942,31597
6940,31588
6939,31574
6939,31558
6941,31535
6944,31511
6950,31485
6956,31465
6962,31451
6969,31440
6976,31432
6981,31425
6986,31421
6990,31418
6992,31417
" style="stroke:#606c71;stroke-width:8;
stroke-linejoin:bevel; stroke-linecap:butt;
"/>
<!-- Line -->
<polyline points="6897,32078
6899,32079
6902,32082
6908,32087
6913,32093
6920,32101
6927,32113
6933,32127
6939,32146
6944,32173
6948,32197
6950,32219
6950,32236
6949,32249
6946,32259
6944,32267
6942,32276
6940,32285
6939,32299
6939,32316
6941,32338
6944,32362
6950,32388
6956,32408
6962,32422
6969,32433
6976,32441
6981,32448
6986,32452
6990,32455
6992,32456
" style="stroke:#606c71;stroke-width:8;
stroke-linejoin:bevel; stroke-linecap:butt;
"/>
<!-- Line -->
<polyline points="6897,32834
6899,32833
6902,32830
6908,32826
6913,32819
6920,32811
6927,32800
6933,32786
6939,32766
6944,32740
6948,32716
6950,32693
6950,32677
6949,32663
6946,32654
6944,32645
6942,32637
6940,32627
6939,32614
6939,32597
6941,32575
6944,32551
6950,32524
6956,32504
6962,32491
6969,32479
6976,32471
6981,32465
6986,32460
6990,32457
6992,32456
" style="stroke:#606c71;stroke-width:8;
stroke-linejoin:bevel; stroke-linecap:butt;
"/>
<!-- Line -->
<polyline points="6897,30000
6899,30001
6902,30004
6908,30008
6913,30014
6920,30023
6927,30034
6933,30048
6939,30068
6944,30094
6948,30118
6950,30140
6950,30157
6949,30171
6946,30180
6944,30188
6942,30197
6940,30206
6939,30220
6939,30237
6941,30259
6944,30283
6950,30309
6956,30329
6962,30343
6969,30354
6976,30363
6981,30369
6986,30373
6990,30376
6992,30377
" style="stroke:#606c71;stroke-width:8;
stroke-linejoin:bevel; stroke-linecap:butt;
"/>
<!-- Line -->
<polyline points="6897,30755
6899,30754
6902,30751
6908,30747
6913,30741
6920,30732
6927,30721
6933,30707
6939,30687
6944,30661
6948,30637
6950,30615
6950,30598
6949,30584
6946,30575
6944,30566
6942,30558
6940,30549
6939,30535
6939,30518
6941,30496
6944,30472
6950,30446
6956,30426
6962,30412
6969,30401
6976,30392
6981,30386
6986,30382
6990,30379
6992,30377
" style="stroke:#606c71;stroke-width:8;
stroke-linejoin:bevel; stroke-linecap:butt;
"/>
<!-- Line: box -->
<rect x="10818" y="31133" width="283" height="944" rx="0" 
style="stroke:#606c71;stroke-width:16;
stroke-linejoin:miter; stroke-linecap:butt;
fill:#ffffff;
"/>
<!-- Line: box -->
<rect x="10488" y="31133" width="283" height="944" rx="0" 
style="stroke:#606c71;stroke-width:16;
stroke-linejoin:miter; stroke-linecap:butt;
fill:#ffffff;
"/>
<!-- Line: box -->
<rect x="10157" y="31133" width="283" height="944" rx="0" 
style="stroke:#606c71;stroke-width:16;
stroke-linejoin:miter; stroke-linecap:butt;
fill:#ffffff;
"/>
<!-- Line -->
<polyline points="7086,30377
7871,31207
" style="stroke:#606c71;stroke-width:8;
stroke-linejoin:miter; stroke-linecap:butt;
"/>
<!-- Arrowhead on XXXpoint 7086 30377 - 7947 31286-->
<polygon points="7853 31220
7935 31273
7887 31188
7853 31220

" style="stroke:#606c71;stroke-width:8;stroke-miterlimit:8;
fill:#606c71;"/>
<!-- Line -->
<polyline points="9969,31417
9165,31417
" style="stroke:#606c71;stroke-width:8;
stroke-linejoin:miter; stroke-linecap:butt;
"/>
<!-- Arrowhead on XXXpoint 9165 31417 - 10078 31417-->
<polygon points="9967 31440
10061 31417
9967 31393
9967 31440

" style="stroke:#606c71;stroke-width:8;stroke-miterlimit:8;
fill:#606c71;"/>
<!-- Line -->
<polyline points="9875,31275
9023,31275
" style="stroke:#606c71;stroke-width:8;
stroke-linejoin:miter; stroke-linecap:butt;
"/>
<!-- Arrowhead on XXXpoint 9023 31275 - 9984 31275-->
<polygon points="9872 31298
9967 31275
9872 31251
9872 31298

" style="stroke:#606c71;stroke-width:8;stroke-miterlimit:8;
fill:#606c71;"/>
<!-- Line: box -->
<rect x="7937" y="30944" width="1133" height="661" rx="0" 
style="stroke:#606c71;stroke-width:16;
stroke-linejoin:miter; stroke-linecap:butt;
fill:#ffffff;
"/>
<!-- Text -->
<text xml:space="preserve" x="6755" y="30141" fill="#606c71"  font-family="Courier" font-style="normal" font-weight="normal" font-size="227" text-anchor="end">in_000.jpg</text>
<!-- Text -->
<text xml:space="preserve" x="6755" y="30349" fill="#606c71"  font-family="Courier" font-style="normal" font-weight="normal" font-size="227" text-anchor="end">in_003.jpg</text>
<!-- Text -->
<text xml:space="preserve" x="6755" y="30557" fill="#606c71"  font-family="Courier" font-style="normal" font-weight="normal" font-size="227" text-anchor="end">in_006.jpg</text>
<!-- Text -->
<text xml:space="preserve" x="6755" y="30755" fill="#606c71"  font-family="Courier" font-style="normal" font-weight="normal" font-size="227" text-anchor="end">...       </text>
<!-- Text -->
<text xml:space="preserve" x="6755" y="31181" fill="#606c71"  font-family="Courier" font-style="normal" font-weight="normal" font-size="227" text-anchor="end">in_001.jpg</text>
<!-- Text -->
<text xml:space="preserve" x="6755" y="31388" fill="#606c71"  font-family="Courier" font-style="normal" font-weight="normal" font-size="227" text-anchor="end">in_004.jpg</text>
<!-- Text -->
<text xml:space="preserve" x="6755" y="31596" fill="#606c71"  font-family="Courier" font-style="normal" font-weight="normal" font-size="227" text-anchor="end">in_007.jpg</text>
<!-- Text -->
<text xml:space="preserve" x="6755" y="32220" fill="#606c71"  font-family="Courier" font-style="normal" font-weight="normal" font-size="227" text-anchor="end">in_002.jpg</text>
<!-- Text -->
<text xml:space="preserve" x="6755" y="32428" fill="#606c71"  font-family="Courier" font-style="normal" font-weight="normal" font-size="227" text-anchor="end">in_005.jpg</text>
<!-- Text -->
<text xml:space="preserve" x="6755" y="32636" fill="#606c71"  font-family="Courier" font-style="normal" font-weight="normal" font-size="227" text-anchor="end">in_008.jpg</text>
<!-- Text -->
<text xml:space="preserve" x="6755" y="31795" fill="#606c71"  font-family="Courier" font-style="normal" font-weight="normal" font-size="227" text-anchor="end">...       </text>
<!-- Text -->
<text xml:space="preserve" x="6755" y="32834" fill="#606c71"  font-family="Courier" font-style="normal" font-weight="normal" font-size="227" text-anchor="end">...       </text>
<!-- Text -->
<g transform="translate(10204,30755) rotate(-90.00021046)" >
<text xml:space="preserve" x="0" y="0" fill="#606c71"  font-family="Helvetica" font-style="normal" font-weight="normal" font-size="227" text-anchor="start">shape</text>
</g><!-- Text -->
<g transform="translate(10535,30755) rotate(-90.00021046)" >
<text xml:space="preserve" x="0" y="0" fill="#606c71"  font-family="Helvetica" font-style="normal" font-weight="normal" font-size="227" text-anchor="start">filename</text>
</g><!-- Text -->
<g transform="translate(10866,30755) rotate(-90.00021046)" >
<text xml:space="preserve" x="0" y="0" fill="#606c71"  font-family="Helvetica" font-style="normal" font-weight="normal" font-size="227" text-anchor="start">image</text>
</g><!-- Line: box -->
<rect x="8031" y="31086" width="1133" height="661" rx="0" 
style="stroke:#606c71;stroke-width:16;
stroke-linejoin:miter; stroke-linecap:butt;
fill:#ffffff;
"/>
<!-- Line -->
<polyline points="10064,31559
9259,31559
" style="stroke:#606c71;stroke-width:8;
stroke-linejoin:miter; stroke-linecap:butt;
"/>
<!-- Arrowhead on XXXpoint 9259 31559 - 10173 31559-->
<polygon points="10061 31582
10156 31559
10061 31534
10061 31582

" style="stroke:#606c71;stroke-width:8;stroke-miterlimit:8;
fill:#606c71;"/>
<!-- Line: box -->
<rect x="8125" y="31228" width="1133" height="661" rx="0" 
style="stroke:#606c71;stroke-width:16;
stroke-linejoin:miter; stroke-linecap:butt;
fill:#ffffff;
"/>
<!-- Line -->
<polyline points="7086,32456
8054,31619
" style="stroke:#606c71;stroke-width:8;
stroke-linejoin:miter; stroke-linecap:butt;
"/>
<!-- Arrowhead on XXXpoint 7086 32456 - 8137 31548-->
<polygon points="8068 31638
8124 31560
8037 31603
8068 31638

" style="stroke:#606c71;stroke-width:8;stroke-miterlimit:8;
fill:#606c71;"/>
<!-- Line -->
<polyline points="7086,31417
7937,31417
" style="stroke:#606c71;stroke-width:8;
stroke-linejoin:miter; stroke-linecap:butt;
"/>
<!-- Arrowhead on XXXpoint 7086 31417 - 8047 31417-->
<polygon points="7935 31440
8030 31417
7935 31393
7935 31440

" style="stroke:#606c71;stroke-width:8;stroke-miterlimit:8;
fill:#606c71;"/>
<!-- Text -->
<text xml:space="preserve" x="8173" y="31464" fill="#606c71"  font-family="Times" font-style="normal" font-weight="normal" font-size="202" text-anchor="start">CPU0</text>
</g>
</svg>
