<?xml version="1.0" standalone="no"?>
<!DOCTYPE svg PUBLIC "-//W3C//DTD SVG 1.1//EN"
"http://www.w3.org/Graphics/SVG/1.1/DTD/svg11.dtd">
<!-- Creator: fig2dev Version 3.2 Patchlevel 5e -->
<!-- CreationDate: Thu Jul  4 11:22:41 2019 -->
<!-- Magnification: 1.050 -->
<svg	xmlns="http://www.w3.org/2000/svg"
	xmlns:xlink="http://www.w3.org/1999/xlink"
	width="6.1in" height="2.4in"
	viewBox="4962 18207 7353 2925">
<g style="stroke-width:.025in; fill:none">
<!-- Line -->
<polyline points="6897,19322
6899,19323
6902,19327
6908,19331
6913,19337
6920,19345
6927,19357
6933,19371
6939,19391
6944,19417
6948,19441
6950,19463
6950,19480
6949,19493
6946,19503
6944,19511
6942,19520
6940,19529
6939,19543
6939,19560
6941,19582
6944,19606
6950,19632
6956,19652
6962,19666
6969,19677
6976,19686
6981,19692
6986,19696
6990,19699
6992,19700
" style="stroke:#606c71;stroke-width:8;
stroke-linejoin:bevel; stroke-linecap:butt;
"/>
<!-- Line -->
<polyline points="6897,20078
6899,20077
6902,20074
6908,20070
6913,20064
6920,20055
6927,20044
6933,20030
6939,20010
6944,19984
6948,19960
6950,19938
6950,19921
6949,19907
6946,19898
6944,19889
6942,19881
6940,19871
6939,19858
6939,19841
6941,19819
6944,19795
6950,19769
6956,19749
6962,19735
6969,19723
6976,19715
6981,19709
6986,19704
6990,19701
6992,19700
" style="stroke:#606c71;stroke-width:8;
stroke-linejoin:bevel; stroke-linecap:butt;
"/>
<!-- Line -->
<polyline points="6897,20362
6899,20363
6902,20366
6908,20370
6913,20376
6920,20385
6927,20396
6933,20410
6939,20430
6944,20456
6948,20480
6950,20502
6950,20519
6949,20533
6946,20542
6944,20551
6942,20559
6940,20569
6939,20582
6939,20599
6941,20621
6944,20645
6950,20671
6956,20691
6962,20705
6969,20717
6976,20725
6981,20731
6986,20735
6990,20739
6992,20740
" style="stroke:#606c71;stroke-width:8;
stroke-linejoin:bevel; stroke-linecap:butt;
"/>
<!-- Line -->
<polyline points="6897,21118
6899,21117
6902,21113
6908,21109
6913,21103
6920,21095
6927,21083
6933,21069
6939,21049
6944,21023
6948,20999
6950,20977
6950,20960
6949,20946
6946,20937
6944,20929
6942,20920
6940,20911
6939,20897
6939,20880
6941,20858
6944,20834
6950,20808
6956,20788
6962,20774
6969,20763
6976,20754
6981,20748
6986,20744
6990,20741
6992,20740
" style="stroke:#606c71;stroke-width:8;
stroke-linejoin:bevel; stroke-linecap:butt;
"/>
<!-- Line -->
<polyline points="6897,18283
6899,18284
6902,18287
6908,18291
6913,18298
6920,18306
6927,18318
6933,18331
6939,18351
6944,18377
6948,18402
6950,18424
6950,18440
6949,18454
6946,18464
6944,18472
6942,18480
6940,18490
6939,18503
6939,18520
6941,18542
6944,18566
6950,18593
6956,18613
6962,18626
6969,18638
6976,18646
6981,18653
6986,18657
6990,18660
6992,18661
" style="stroke:#606c71;stroke-width:8;
stroke-linejoin:bevel; stroke-linecap:butt;
"/>
<!-- Line -->
<polyline points="6897,19039
6899,19038
6902,19035
6908,19030
6913,19024
6920,19016
6927,19004
6933,18991
6939,18971
6944,18944
6948,18920
6950,18898
6950,18881
6949,18868
6946,18858
6944,18850
6942,18841
6940,18832
6939,18818
6939,18802
6941,18780
6944,18755
6950,18729
6956,18709
6962,18696
6969,18684
6976,18676
6981,18669
6986,18665
6990,18662
6992,18661
" style="stroke:#606c71;stroke-width:8;
stroke-linejoin:bevel; stroke-linecap:butt;
"/>
<!-- Line -->
<polyline points="10299,19322
10297,19323
10293,19327
10288,19331
10283,19337
10276,19345
10269,19357
10263,19371
10257,19391
10251,19417
10248,19441
10246,19463
10246,19480
10247,19493
10249,19503
10251,19511
10254,19520
10256,19529
10257,19543
10257,19560
10255,19582
10251,19606
10246,19632
10240,19652
10234,19666
10227,19677
10220,19686
10215,19692
10209,19696
10206,19699
10204,19700
" style="stroke:#606c71;stroke-width:8;
stroke-linejoin:bevel; stroke-linecap:butt;
"/>
<!-- Line -->
<polyline points="10299,20078
10297,20077
10293,20074
10288,20070
10283,20064
10276,20055
10269,20044
10263,20030
10257,20010
10251,19984
10248,19960
10246,19938
10246,19921
10247,19907
10249,19898
10251,19889
10254,19881
10256,19871
10257,19858
10257,19841
10255,19819
10251,19795
10246,19769
10240,19749
10234,19735
10227,19723
10220,19715
10215,19709
10209,19704
10206,19701
10204,19700
" style="stroke:#606c71;stroke-width:8;
stroke-linejoin:bevel; stroke-linecap:butt;
"/>
<!-- Line -->
<polyline points="10299,20362
10297,20363
10293,20366
10288,20370
10283,20376
10276,20385
10269,20396
10263,20410
10257,20430
10251,20456
10248,20480
10246,20502
10246,20519
10247,20533
10249,20542
10251,20551
10254,20559
10256,20569
10257,20582
10257,20599
10255,20621
10251,20645
10246,20671
10240,20691
10234,20705
10227,20717
10220,20725
10215,20731
10209,20735
10206,20739
10204,20740
" style="stroke:#606c71;stroke-width:8;
stroke-linejoin:bevel; stroke-linecap:butt;
"/>
<!-- Line -->
<polyline points="10299,21118
10297,21117
10293,21113
10288,21109
10283,21103
10276,21095
10269,21083
10263,21069
10257,21049
10251,21023
10248,20999
10246,20977
10246,20960
10247,20946
10249,20937
10251,20929
10254,20920
10256,20911
10257,20897
10257,20880
10255,20858
10251,20834
10246,20808
10240,20788
10234,20774
10227,20763
10220,20754
10215,20748
10209,20744
10206,20741
10204,20740
" style="stroke:#606c71;stroke-width:8;
stroke-linejoin:bevel; stroke-linecap:butt;
"/>
<!-- Line -->
<polyline points="10299,18283
10297,18284
10293,18287
10288,18291
10283,18298
10276,18306
10269,18318
10263,18331
10257,18351
10251,18377
10248,18402
10246,18424
10246,18440
10247,18454
10249,18464
10251,18472
10254,18480
10256,18490
10257,18503
10257,18520
10255,18542
10251,18566
10246,18593
10240,18613
10234,18626
10227,18638
10220,18646
10215,18653
10209,18657
10206,18660
10204,18661
" style="stroke:#606c71;stroke-width:8;
stroke-linejoin:bevel; stroke-linecap:butt;
"/>
<!-- Line -->
<polyline points="10299,19039
10297,19038
10293,19035
10288,19030
10283,19024
10276,19016
10269,19004
10263,18991
10257,18971
10251,18944
10248,18920
10246,18898
10246,18881
10247,18868
10249,18858
10251,18850
10254,18841
10256,18832
10257,18818
10257,18802
10255,18780
10251,18755
10246,18729
10240,18709
10234,18696
10227,18684
10220,18676
10215,18669
10209,18665
10206,18662
10204,18661
" style="stroke:#606c71;stroke-width:8;
stroke-linejoin:bevel; stroke-linecap:butt;
"/>
<!-- Line -->
<polyline points="10019,20718
9165,20503
" style="stroke:#606c71;stroke-width:8;
stroke-linejoin:miter; stroke-linecap:butt;
"/>
<!-- Arrowhead on XXXpoint 9165 20503 - 10124 20743-->
<polygon points="10010 20739
10108 20739
10022 20692
10010 20739

" style="stroke:#606c71;stroke-width:8;stroke-miterlimit:8;
fill:#606c71;"/>
<!-- Line -->
<polyline points="10016,19700
9165,19700
" style="stroke:#606c71;stroke-width:8;
stroke-linejoin:miter; stroke-linecap:butt;
"/>
<!-- Arrowhead on XXXpoint 9165 19700 - 10125 19700-->
<polygon points="10014 19723
10109 19700
10014 19676
10014 19723

" style="stroke:#606c71;stroke-width:8;stroke-miterlimit:8;
fill:#606c71;"/>
<!-- Line -->
<polyline points="10019,18684
9165,18897
" style="stroke:#606c71;stroke-width:8;
stroke-linejoin:miter; stroke-linecap:butt;
"/>
<!-- Arrowhead on XXXpoint 9165 18897 - 10124 18657-->
<polygon points="10022 18706
10108 18661
10010 18661
10022 18706

" style="stroke:#606c71;stroke-width:8;stroke-miterlimit:8;
fill:#606c71;"/>
<!-- Line -->
<polyline points="7086,20740
7940,20525
" style="stroke:#606c71;stroke-width:8;
stroke-linejoin:miter; stroke-linecap:butt;
"/>
<!-- Arrowhead on XXXpoint 7086 20740 - 8046 20499-->
<polygon points="7943 20549
8029 20503
7931 20503
7943 20549

" style="stroke:#606c71;stroke-width:8;stroke-miterlimit:8;
fill:#606c71;"/>
<!-- Line -->
<polyline points="7086,19700
7937,19700
" style="stroke:#606c71;stroke-width:8;
stroke-linejoin:miter; stroke-linecap:butt;
"/>
<!-- Arrowhead on XXXpoint 7086 19700 - 8047 19700-->
<polygon points="7935 19723
8030 19700
7935 19676
7935 19723

" style="stroke:#606c71;stroke-width:8;stroke-miterlimit:8;
fill:#606c71;"/>
<!-- Line -->
<polyline points="7086,18661
7940,18874
" style="stroke:#606c71;stroke-width:8;
stroke-linejoin:miter; stroke-linecap:butt;
"/>
<!-- Arrowhead on XXXpoint 7086 18661 - 8046 18900-->
<polygon points="7931 18896
8029 18896
7943 18850
7931 18896

" style="stroke:#606c71;stroke-width:8;stroke-miterlimit:8;
fill:#606c71;"/>
<!-- Line: box -->
<rect x="8031" y="18566" width="1133" height="661" rx="0" 
style="stroke:#606c71;stroke-width:16;
stroke-linejoin:miter; stroke-linecap:butt;
"/>
<!-- Line: box -->
<rect x="8031" y="19370" width="1133" height="661" rx="0" 
style="stroke:#606c71;stroke-width:16;
stroke-linejoin:miter; stroke-linecap:butt;
"/>
<!-- Line: box -->
<rect x="8031" y="20173" width="1133" height="661" rx="0" 
style="stroke:#606c71;stroke-width:16;
stroke-linejoin:miter; stroke-linecap:butt;
"/>
<!-- Text -->
<text xml:space="preserve" x="6755" y="18425" fill="#606c71"  font-family="Courier" font-style="normal" font-weight="normal" font-size="227" text-anchor="end">in_000.jpg</text>
<!-- Text -->
<text xml:space="preserve" x="6755" y="18633" fill="#606c71"  font-family="Courier" font-style="normal" font-weight="normal" font-size="227" text-anchor="end">in_003.jpg</text>
<!-- Text -->
<text xml:space="preserve" x="6755" y="18840" fill="#606c71"  font-family="Courier" font-style="normal" font-weight="normal" font-size="227" text-anchor="end">in_006.jpg</text>
<!-- Text -->
<text xml:space="preserve" x="6755" y="19039" fill="#606c71"  font-family="Courier" font-style="normal" font-weight="normal" font-size="227" text-anchor="end">...       </text>
<!-- Text -->
<text xml:space="preserve" x="10346" y="19464" fill="#606c71"  font-family="Courier" font-style="normal" font-weight="normal" font-size="227" text-anchor="start">out_001.jpg</text>
<!-- Text -->
<text xml:space="preserve" x="10346" y="19880" fill="#606c71"  font-family="Courier" font-style="normal" font-weight="normal" font-size="227" text-anchor="start">out_007.jpg</text>
<!-- Text -->
<text xml:space="preserve" x="10346" y="19672" fill="#606c71"  font-family="Courier" font-style="normal" font-weight="normal" font-size="227" text-anchor="start">out_004.jpg</text>
<!-- Text -->
<text xml:space="preserve" x="10393" y="20078" fill="#606c71"  font-family="Courier" font-style="normal" font-weight="normal" font-size="227" text-anchor="start">...</text>
<!-- Text -->
<text xml:space="preserve" x="10346" y="20503" fill="#606c71"  font-family="Courier" font-style="normal" font-weight="normal" font-size="227" text-anchor="start">out_002.jpg</text>
<!-- Text -->
<text xml:space="preserve" x="10346" y="20711" fill="#606c71"  font-family="Courier" font-style="normal" font-weight="normal" font-size="227" text-anchor="start">out_005.jpg</text>
<!-- Text -->
<text xml:space="preserve" x="10346" y="20919" fill="#606c71"  font-family="Courier" font-style="normal" font-weight="normal" font-size="227" text-anchor="start">out_008.jpg</text>
<!-- Text -->
<text xml:space="preserve" x="10393" y="21118" fill="#606c71"  font-family="Courier" font-style="normal" font-weight="normal" font-size="227" text-anchor="start">...</text>
<!-- Text -->
<text xml:space="preserve" x="10346" y="18633" fill="#606c71"  font-family="Courier" font-style="normal" font-weight="normal" font-size="227" text-anchor="start">out_003.jpg</text>
<!-- Text -->
<text xml:space="preserve" x="10346" y="18840" fill="#606c71"  font-family="Courier" font-style="normal" font-weight="normal" font-size="227" text-anchor="start">out_006.jpg</text>
<!-- Text -->
<text xml:space="preserve" x="10346" y="18425" fill="#606c71"  font-family="Courier" font-style="normal" font-weight="normal" font-size="227" text-anchor="start">out_000.jpg</text>
<!-- Text -->
<text xml:space="preserve" x="10393" y="19039" fill="#606c71"  font-family="Courier" font-style="normal" font-weight="normal" font-size="227" text-anchor="start">...</text>
<!-- Text -->
<text xml:space="preserve" x="6755" y="19464" fill="#606c71"  font-family="Courier" font-style="normal" font-weight="normal" font-size="227" text-anchor="end">in_001.jpg</text>
<!-- Text -->
<text xml:space="preserve" x="6755" y="19672" fill="#606c71"  font-family="Courier" font-style="normal" font-weight="normal" font-size="227" text-anchor="end">in_004.jpg</text>
<!-- Text -->
<text xml:space="preserve" x="6755" y="19880" fill="#606c71"  font-family="Courier" font-style="normal" font-weight="normal" font-size="227" text-anchor="end">in_007.jpg</text>
<!-- Text -->
<text xml:space="preserve" x="6755" y="20503" fill="#606c71"  font-family="Courier" font-style="normal" font-weight="normal" font-size="227" text-anchor="end">in_002.jpg</text>
<!-- Text -->
<text xml:space="preserve" x="6755" y="20711" fill="#606c71"  font-family="Courier" font-style="normal" font-weight="normal" font-size="227" text-anchor="end">in_005.jpg</text>
<!-- Text -->
<text xml:space="preserve" x="6755" y="20919" fill="#606c71"  font-family="Courier" font-style="normal" font-weight="normal" font-size="227" text-anchor="end">in_008.jpg</text>
<!-- Text -->
<text xml:space="preserve" x="6755" y="20078" fill="#606c71"  font-family="Courier" font-style="normal" font-weight="normal" font-size="227" text-anchor="end">...       </text>
<!-- Text -->
<text xml:space="preserve" x="6755" y="21118" fill="#606c71"  font-family="Courier" font-style="normal" font-weight="normal" font-size="227" text-anchor="end">...       </text>
<!-- Text -->
<text xml:space="preserve" x="8598" y="18992" fill="#606c71"  font-family="Times" font-style="normal" font-weight="normal" font-size="252" text-anchor="middle">CPU0</text>
<!-- Text -->
<text xml:space="preserve" x="8645" y="19795" fill="#606c71"  font-family="Times" font-style="normal" font-weight="normal" font-size="252" text-anchor="middle">CPU1</text>
<!-- Text -->
<text xml:space="preserve" x="8598" y="20598" fill="#606c71"  font-family="Times" font-style="normal" font-weight="normal" font-size="252" text-anchor="middle">CPU2</text>
</g>
</svg>
