<?xml version="1.0" standalone="no"?>
<!DOCTYPE svg PUBLIC "-//W3C//DTD SVG 1.1//EN"
"http://www.w3.org/Graphics/SVG/1.1/DTD/svg11.dtd">
<!-- Creator: fig2dev Version 3.2 Patchlevel 5e -->
<!-- CreationDate: Mon Jul  8 10:01:44 2019 -->
<!-- Magnification: 1.050 -->
<svg	xmlns="http://www.w3.org/2000/svg"
	xmlns:xlink="http://www.w3.org/1999/xlink"
	width="4.5in" height="2.1in"
	viewBox="6071 29592 5384 2509">
<g style="stroke-width:.025in; fill:none">
<!-- Line: box -->
<rect x="10299" y="30850" width="283" height="944" rx="0" 
style="stroke:#606c71;stroke-width:16;
stroke-linejoin:miter; stroke-linecap:butt;
stroke-dasharray:41 41;"/>
<!-- Line: box -->
<rect x="9968" y="30850" width="283" height="944" rx="0" 
style="stroke:#606c71;stroke-width:16;
stroke-linejoin:miter; stroke-linecap:butt;
fill:#cccccc;
"/>
<!-- Line: box -->
<rect x="10629" y="30850" width="283" height="944" rx="0" 
style="stroke:#606c71;stroke-width:16;
stroke-linejoin:miter; stroke-linecap:butt;
stroke-dasharray:41 41;fill:#ffffff;
"/>
<!-- Line: box -->
<rect x="10960" y="30850" width="283" height="944" rx="0" 
style="stroke:#606c71;stroke-width:16;
stroke-linejoin:miter; stroke-linecap:butt;
stroke-dasharray:41 41;fill:#ffffff;
"/>
<!-- Line: box -->
<rect x="6425" y="30850" width="283" height="944" rx="0" 
style="stroke:#606c71;stroke-width:16;
stroke-linejoin:miter; stroke-linecap:butt;
stroke-dasharray:41 41;fill:#ffffff;
"/>
<!-- Line: box -->
<rect x="6094" y="30850" width="283" height="944" rx="0" 
style="stroke:#606c71;stroke-width:16;
stroke-linejoin:miter; stroke-linecap:butt;
stroke-dasharray:41 41;fill:#ffffff;
"/>
<!-- Line: box -->
<rect x="6755" y="30850" width="283" height="944" rx="0" 
style="stroke:#606c71;stroke-width:16;
stroke-linejoin:miter; stroke-linecap:butt;
fill:#cccccc;
"/>
<!-- Line: box -->
<rect x="6188" y="30992" width="283" height="944" rx="0" 
style="stroke:#606c71;stroke-width:16;
stroke-linejoin:miter; stroke-linecap:butt;
stroke-dasharray:41 41;fill:#ffffff;
"/>
<!-- Line: box -->
<rect x="6850" y="30992" width="283" height="944" rx="0" 
style="stroke:#606c71;stroke-width:16;
stroke-linejoin:miter; stroke-linecap:butt;
fill:#cccccc;
"/>
<!-- Line: box -->
<rect x="6519" y="30992" width="283" height="944" rx="0" 
style="stroke:#606c71;stroke-width:16;
stroke-linejoin:miter; stroke-linecap:butt;
stroke-dasharray:41 41;fill:#ffffff;
"/>
<!-- Line: box -->
<rect x="11055" y="30992" width="283" height="944" rx="0" 
style="stroke:#606c71;stroke-width:16;
stroke-linejoin:miter; stroke-linecap:butt;
stroke-dasharray:41 41;fill:#ffffff;
"/>
<!-- Line: box -->
<rect x="10724" y="30992" width="283" height="944" rx="0" 
style="stroke:#606c71;stroke-width:16;
stroke-linejoin:miter; stroke-linecap:butt;
stroke-dasharray:41 41;fill:#ffffff;
"/>
<!-- Line: box -->
<rect x="10393" y="30992" width="283" height="944" rx="0" 
style="stroke:#606c71;stroke-width:16;
stroke-linejoin:miter; stroke-linecap:butt;
stroke-dasharray:41 41;fill:#ffffff;
"/>
<!-- Line: box -->
<rect x="10062" y="30992" width="283" height="944" rx="0" 
style="stroke:#606c71;stroke-width:16;
stroke-linejoin:miter; stroke-linecap:butt;
fill:#cccccc;
"/>
<!-- Line: box -->
<rect x="6614" y="31133" width="283" height="944" rx="0" 
style="stroke:#606c71;stroke-width:16;
stroke-linejoin:miter; stroke-linecap:butt;
stroke-dasharray:41 41;fill:#ffffff;
"/>
<!-- Line: box -->
<rect x="6283" y="31133" width="283" height="944" rx="0" 
style="stroke:#606c71;stroke-width:16;
stroke-linejoin:miter; stroke-linecap:butt;
stroke-dasharray:41 41;fill:#ffffff;
"/>
<!-- Line: box -->
<rect x="11149" y="31133" width="283" height="944" rx="0" 
style="stroke:#606c71;stroke-width:16;
stroke-linejoin:miter; stroke-linecap:butt;
stroke-dasharray:41 41;fill:#ffffff;
"/>
<!-- Line: box -->
<rect x="10488" y="31133" width="283" height="944" rx="0" 
style="stroke:#606c71;stroke-width:16;
stroke-linejoin:miter; stroke-linecap:butt;
stroke-dasharray:41 41;fill:#ffffff;
"/>
<!-- Line: box -->
<rect x="10818" y="31133" width="283" height="944" rx="0" 
style="stroke:#606c71;stroke-width:16;
stroke-linejoin:miter; stroke-linecap:butt;
stroke-dasharray:41 41;fill:#ffffff;
"/>
<!-- Line: box -->
<rect x="10157" y="31133" width="283" height="944" rx="0" 
style="stroke:#606c71;stroke-width:16;
stroke-linejoin:miter; stroke-linecap:butt;
fill:#cccccc;
"/>
<!-- Line -->
<polyline points="9969,31417
9165,31417
" style="stroke:#606c71;stroke-width:8;
stroke-linejoin:miter; stroke-linecap:butt;
"/>
<!-- Arrowhead on XXXpoint 9165 31417 - 10078 31417-->
<polygon points="9967 31440
10061 31417
9967 31393
9967 31440

" style="stroke:#606c71;stroke-width:8;stroke-miterlimit:8;
fill:#606c71;"/>
<!-- Line -->
<polyline points="9875,31275
9023,31275
" style="stroke:#606c71;stroke-width:8;
stroke-linejoin:miter; stroke-linecap:butt;
"/>
<!-- Arrowhead on XXXpoint 9023 31275 - 9984 31275-->
<polygon points="9872 31298
9967 31275
9872 31251
9872 31298

" style="stroke:#606c71;stroke-width:8;stroke-miterlimit:8;
fill:#606c71;"/>
<!-- Line -->
<polyline points="7843,31275
6992,31275
" style="stroke:#606c71;stroke-width:8;
stroke-linejoin:miter; stroke-linecap:butt;
"/>
<!-- Arrowhead on XXXpoint 6992 31275 - 7952 31275-->
<polygon points="7841 31298
7935 31275
7841 31251
7841 31298

" style="stroke:#606c71;stroke-width:8;stroke-miterlimit:8;
fill:#606c71;"/>
<!-- Line: box -->
<rect x="7937" y="30944" width="1133" height="661" rx="0" 
style="stroke:#606c71;stroke-width:16;
stroke-linejoin:miter; stroke-linecap:butt;
fill:#ffffff;
"/>
<!-- Text -->
<g transform="translate(10204,30755) rotate(-90.00021046)" >
<text xml:space="preserve" x="0" y="0" fill="#606c71"  font-family="Helvetica" font-style="normal" font-weight="normal" font-size="227" text-anchor="start">thumb</text>
</g><!-- Text -->
<g transform="translate(10535,30755) rotate(-90.00021046)" >
<text xml:space="preserve" x="0" y="0" fill="#78878d"  font-family="Helvetica" font-style="normal" font-weight="normal" font-size="227" text-anchor="start">shape</text>
</g><!-- Text -->
<g transform="translate(10866,30755) rotate(-90.00021046)" >
<text xml:space="preserve" x="0" y="0" fill="#78878d"  font-family="Helvetica" font-style="normal" font-weight="normal" font-size="227" text-anchor="start">filename</text>
</g><!-- Text -->
<g transform="translate(11196,30755) rotate(-90.00021046)" >
<text xml:space="preserve" x="0" y="0" fill="#78878d"  font-family="Helvetica" font-style="normal" font-weight="normal" font-size="227" text-anchor="start">image</text>
</g><!-- Text -->
<g transform="translate(6661,30803) rotate(-90.00021046)" >
<text xml:space="preserve" x="0" y="0" fill="#78878d"  font-family="Helvetica" font-style="normal" font-weight="normal" font-size="227" text-anchor="start">filename</text>
</g><!-- Text -->
<g transform="translate(6992,30803) rotate(-90.00021046)" >
<text xml:space="preserve" x="0" y="0" fill="#606c71"  font-family="Helvetica" font-style="normal" font-weight="normal" font-size="227" text-anchor="start">image</text>
</g><!-- Text -->
<g transform="translate(6330,30803) rotate(-90.00021046)" >
<text xml:space="preserve" x="0" y="0" fill="#78878d"  font-family="Helvetica" font-style="normal" font-weight="normal" font-size="227" text-anchor="start">shape</text>
</g><!-- Line: box -->
<rect x="8031" y="31086" width="1133" height="661" rx="0" 
style="stroke:#606c71;stroke-width:16;
stroke-linejoin:miter; stroke-linecap:butt;
fill:#ffffff;
"/>
<!-- Line -->
<polyline points="7938,31417
7133,31417
" style="stroke:#606c71;stroke-width:8;
stroke-linejoin:miter; stroke-linecap:butt;
"/>
<!-- Arrowhead on XXXpoint 7133 31417 - 8047 31417-->
<polygon points="7935 31440
8030 31417
7935 31393
7935 31440

" style="stroke:#606c71;stroke-width:8;stroke-miterlimit:8;
fill:#606c71;"/>
<!-- Line: box -->
<rect x="6944" y="31133" width="283" height="944" rx="0" 
style="stroke:#606c71;stroke-width:16;
stroke-linejoin:miter; stroke-linecap:butt;
fill:#cccccc;
"/>
<!-- Line -->
<polyline points="10064,31559
9259,31559
" style="stroke:#606c71;stroke-width:8;
stroke-linejoin:miter; stroke-linecap:butt;
"/>
<!-- Arrowhead on XXXpoint 9259 31559 - 10173 31559-->
<polygon points="10061 31582
10156 31559
10061 31534
10061 31582

" style="stroke:#606c71;stroke-width:8;stroke-miterlimit:8;
fill:#606c71;"/>
<!-- Line -->
<polyline points="8032,31559
7228,31559
" style="stroke:#606c71;stroke-width:8;
stroke-linejoin:miter; stroke-linecap:butt;
"/>
<!-- Arrowhead on XXXpoint 7228 31559 - 8141 31559-->
<polygon points="8030 31582
8124 31559
8030 31534
8030 31582

" style="stroke:#606c71;stroke-width:8;stroke-miterlimit:8;
fill:#606c71;"/>
<!-- Line: box -->
<rect x="8125" y="31228" width="1133" height="661" rx="0" 
style="stroke:#606c71;stroke-width:16;
stroke-linejoin:miter; stroke-linecap:butt;
fill:#ffffff;
"/>
<!-- Text -->
<text xml:space="preserve" x="8173" y="31464" fill="#606c71"  font-family="Times" font-style="normal" font-weight="normal" font-size="202" text-anchor="start">CPU0</text>
</g>
</svg>
